[img]http://img33.imageshack.us/img33/6886/friendsaq.jpg[/img]
[code]
			                                                                

Ripper ...........: IMAGiNE              IMDB Rating.......: 6.8/10                             
Video Codec.......: XViD                 Release Date......: 23/08/11
Audio Codec.......: MP3                  Theatre Date......: 22/07/11
Audio Bitrate.....: 128                  Runtime...........: 1h 44mn
Subtitles.........: NIL                  Language..........: ENGLISH
Resolution........: 720 x 304            IMDb URL..........: http://www.imdb.com/title/tt1632708/

DETAILS:



Video
ID                               : 0
Format                           : MPEG-4 Visual
Format profile                   : Advanced Simple@L5
Format settings, BVOP            : 2
Format settings, QPel            : No
Format settings, GMC             : No warppoints
Format settings, Matrix          : Default (MPEG)
Muxing mode                      : Packed bitstream
Codec ID                         : XVID
Codec ID/Hint                    : XviD
Duration                         : 1h 44mn
Bit rate                         : 1 731 Kbps
Width                            : 720 pixels
Height                           : 304 pixels
Display aspect ratio             : 2.35:1
Frame rate                       : 25.000 fps
Color space                      : YUV
Chroma subsampling               : 4:2:0
Bit depth                        : 8 bits
Scan type                        : Progressive
Compression mode                 : Lossy
Bits/(Pixel*Frame)               : 0.316
Stream size                      : 1.27 GiB (93%)
Writing library                  : XviD 64

Audio
ID                               : 1
Format                           : MPEG Audio
Format version                   : Version 1
Format profile                   : Layer 3
Mode                             : Joint stereo
Mode extension                   : MS Stereo
Codec ID                         : 55
Codec ID/Hint                    : MP3
Duration                         : 1h 44mn
Bit rate mode                    : Constant
Bit rate                         : 128 Kbp
Channel(s)                       : 2 channels
Sampling rate                    : 44.1 KHz
Compression mode                 : Lossy
Stream size                      : 96.1 MiB (7%)
Alignment                        : Split accross interleaves
Interleave, duration             : 40 ms (1.00 video frame)

Plot:
While trying to avoid the clichés of Hollywood romantic comedies, Dylan and Jamie soon discover however that adding the act of sex to their friendship does lead to complications.

SOURCES:
VIDEO: ................ Friends.with.Benefits.DVD.RELiZLAB Thanks 
AUDIO: ................ Thanks Matey 

NOTES:
IMAGiNE bringing you another release..........
Friends with Benefits R5........
Ok so first we made a script to crop resize and sharpen......
Made some adjustments to the colors as there was too much green in there Now on to the audio, and the reason for the READNFO.....

Audio is nice NEW LiNE we fitered synced and muxed, much better than the LiNE on the TSEnjoy Folks!
[/code]
Screens:
[img]http://img822.imageshack.us/img822/9254/21403752.png[/img]
[img]http://img849.imageshack.us/img849/2630/86031642.png[/img]
[img]http://img819.imageshack.us/img819/9493/49743949.png[/img]
[img]http://img12.imageshack.us/img12/5469/59116619.png[/img]